<?xml version="1.0" encoding="iso-8859-1"?>
<!-- Generator: Adobe Illustrator 19.0.0, SVG Export Plug-In . SVG Version: 6.00 Build 0)  -->
<svg version="1.1" id="Layer_1" xmlns="http://www.w3.org/2000/svg" xmlns:xlink="http://www.w3.org/1999/xlink" x="0px"
	 y="0px"
	 viewBox="0 0 512 512" style="enable-background:new 0 0 512 512;" xml:space="preserve">
<circle style="fill:#324A5E;" cx="256" cy="256" r="256"/>
	<path style="fill:#2B3B4E;" d="M510.111,287.149L366.916,143.955l-162.344-29.027l-92.805,92.803l-22.819,76.836l221.591,221.591
	C415.816,483.311,496.938,395.714,510.111,287.149z"/>
	<path style="fill:#66B31B;" d="M279.266,327.38l-6.306-23.445c-7.663-28.484-36.964-45.363-65.448-37.702l-23.443,6.306
	l6.306,23.445c7.663,28.484,36.964,45.363,65.448,37.702L279.266,327.38z"/>
	<path style="fill:#599B13;" d="M290.94,338.661c-0.876,0-1.762-0.224-2.576-0.691l-71.752-41.334
	c-2.477-1.426-3.327-4.587-1.901-7.063c1.427-2.476,4.586-3.325,7.063-1.901l71.752,41.334c2.477,1.426,3.327,4.587,1.901,7.063
	C294.467,337.73,292.73,338.661,290.94,338.661z"/>
	<path style="fill:#79D720;" d="M291.674,334.426l-25.933-25.933c-31.508-31.508-31.508-82.592,0-114.1l25.933-25.933l25.933,25.933
	c31.508,31.508,31.508,82.592,0,114.1L291.674,334.426z"/>
	<path style="fill:#66B31B;" d="M317.609,194.393l-25.934-25.933l-0.622,0.622v164.723l0.622,0.622l25.933-25.933
	C349.117,276.985,349.117,225.901,317.609,194.393z"/>
	<path style="fill:#599B13;" d="M291.674,403.394c-2.857,0-5.172-2.315-5.172-5.172V232.241c0-2.857,2.315-5.172,5.172-5.172
	s5.172,2.315,5.172,5.172v165.981C296.846,401.079,294.533,403.394,291.674,403.394z"/>
	<path style="fill:#4E840F;" d="M291.674,227.069c-0.214,0-0.415,0.038-0.622,0.062v176.2c0.207,0.026,0.409,0.062,0.622,0.062
	c2.857,0,5.172-2.315,5.172-5.172V232.241C296.846,229.385,294.533,227.069,291.674,227.069z"/>
	<path style="fill:#9FD367;" d="M256,98.263c-85.008,0-154.512,67.596-157.617,151.859l-20.182-20.178
	c-6.058-6.058-15.884-6.06-21.942,0.002c-6.06,6.06-6.06,15.882,0.002,21.942l47.416,47.411c2.91,2.91,6.856,4.544,10.971,4.544
	c4.115,0,8.061-1.634,10.971-4.546l47.399-47.411c6.058-6.061,6.056-15.884-0.003-21.944c-6.063-6.06-15.884-6.056-21.944,0.003
	l-21.669,21.676c2.324-67.844,58.201-122.328,126.598-122.328c69.866,0,126.707,56.841,126.707,126.707S325.866,382.707,256,382.707
	c-8.57,0-15.515,6.946-15.515,15.515c0,8.57,6.946,15.515,15.515,15.515c86.976,0,157.737-70.761,157.737-157.737
	S342.976,98.263,256,98.263z"/>
	<path style="fill:#8AB74F;" d="M256,98.263v31.03c69.866,0,126.707,56.841,126.707,126.707S325.866,382.707,256,382.707
	c-8.57,0-15.515,6.946-15.515,15.515c0,8.57,6.946,15.515,15.515,15.515c86.976,0,157.737-70.761,157.737-157.737
	S342.976,98.263,256,98.263z"/>
	<g>
</g>
	<g>
</g>
	<g>
</g>
	<g>
</g>
	<g>
</g>
	<g>
</g>
	<g>
</g>
	<g>
</g>
	<g>
</g>
	<g>
</g>
	<g>
</g>
	<g>
</g>
	<g>
</g>
	<g>
</g>
	<g>
</g>
</svg>
